Coordinates
version=1
nRows=19
nColumns=36
inDegrees=yes

Units are S.I. units (second, meters, Newtons, ...)
If the header above contains a line with 'inDegrees', this indicates whether rotational values are in degrees (yes) or radians (no).

endheader
time	pelvis_tilt	pelvis_list	pelvis_rotation	pelvis_tx	pelvis_ty	pelvis_tz	hip_flexion_r	hip_adduction_r	hip_rotation_r	knee_angle_r	knee_angle_r_beta	ankle_angle_r	subtalar_angle_r	mtp_angle_r	hip_flexion_l	hip_adduction_l	hip_rotation_l	knee_angle_l	knee_angle_l_beta	ankle_angle_l	subtalar_angle_l	mtp_angle_l	lumbar_extension	lumbar_bending	lumbar_rotation	arm_flex_r	arm_add_r	arm_rot_r	elbow_flex_r	pro_sup_r	arm_flex_l	arm_add_l	arm_rot_l	elbow_flex_l	pro_sup_l
      0.34000000	      0.53192827	     -4.36493749	      2.40861494	      0.26116419	      0.93865099	     -0.26368387	     -3.22124467	     10.47540098	      0.17523754	      4.50992659	      0.07871307	      7.47923624	     -8.76688453	     -6.78811309	     26.11460930	     -2.21411051	      5.50187766	     61.35609850	      1.07086594	     -3.78832515	    -23.15698204	     -6.78811309	     -6.29876711	      6.05751364	     -0.78879270	      0.74816438	     -8.04022337	     -8.45597977	     38.73687829	     98.06050336	     -7.78134975	     -1.08491116	    -17.82842164	     34.69705245	     98.80456155
      0.35000000	      0.49059211	     -4.11142336	      1.96706710	      0.27179456	      0.93841959	     -0.26274711	     -4.03499775	     10.23422926	      0.55865229	      4.39132366	      0.07664306	      8.20610629	     -8.38623628	     -6.80928344	     27.04568554	     -2.01000660	      5.09965017	     58.78748626	      1.02603519	     -3.65673573	    -23.94139885	     -6.80928344	     -6.46062796	      5.71154106	     -0.21749934	      1.89916916	     -8.26400455	     -7.93558347	     39.48989746	     97.96467962	     -8.40938480	     -0.96104475	    -18.78002670	     34.25069048	     98.67532038
      0.36000000	      0.24394231	     -3.92571238	      1.58634128	      0.28244187	      0.93777829	     -0.26188219	     -4.58411591	     10.06122026	      0.82752560	      4.30852616	      0.07519797	      8.50187034	     -8.26313903	     -6.81511957	     28.10777604	     -1.86666436	      4.80570085	     55.98850776	      0.97718380	     -3.29793440	    -24.15526210	     -6.81511957	     -6.35004114	      5.44797486	      0.18418011	      3.03504124	     -8.38473972	     -7.77675460	     40.23503969	     97.98043156	     -9.18042980	     -0.97739048	    -19.14599283	     33.83540645	     98.60497423
      0.37000000	      0.28898039	     -3.66513580	      1.14634836	      0.29317057	      0.93743935	     -0.26099488	     -5.52058391	      9.79713437	      1.19904380	      4.11601101	      0.07183794	      9.23853424	     -7.94815491	     -6.83006920	     28.62571916	     -1.72531830	      4.36241817	     52.78545487	      0.92127998	     -3.18096134	    -24.43437170	     -6.83006920	     -6.60488248	      5.08556424	      0.77278518	      4.12415553	     -8.58161953	     -7.29827118	     40.98732942	     97.97087607	     -9.71448364	     -0.86620853	    -20.07244269	     33.36865101	     98.47357819
      0.38000000	     -0.00919085	     -3.74069474	      0.81550177	      0.30394062	      0.93638991	     -0.26025649	     -6.00372074	      9.90005445	      1.32562379	      4.03294778	      0.07038822	      9.43184887	     -7.82955802	     -6.83357564	     29.52296438	     -1.87397023	      4.21596634	     49.57630690	      0.86526979	     -2.98534617	    -24.30800241	     -6.83357564	     -6.37457829	      5.14052124	      1.13086735	      5.17355654	     -8.71105490	     -7.19347069	     41.69748514	     98.01106203	    -10.50138451	     -0.84175513	    -20.35703289	     33.03022461	     98.41751233
      0.39000000	      0.06630665	     -3.31853439	      0.32917761	      0.31482594	      0.93593132	     -0.25939257	     -6.99506745	      9.41831888	      1.70425385	      3.80302334	      0.06637528	     10.11603881	     -7.49572037	     -6.84534761	     29.63525556	     -1.61250077	      3.69201635	     45.79368324	      0.79925055	     -2.87385519	    -23.96788967	     -6.84534761	     -6.67436923	      4.57370438	      1.66188056	      6.18429953	     -8.84015116	     -6.69576253	     42.58987147	     98.09058241	    -11.00222124	     -0.80977349	    -21.27854587	     32.54388162	     98.27171251
      0.40000000	     -0.17520532	     -3.26082408	     -0.05825481	      0.32570373	      0.93476075	     -0.25867058	     -7.56032227	      9.33662818	      1.95767366	      3.71827395	      0.06489612	     10.40345731	     -7.23381368	     -6.85132019	     30.12395132	     -1.65071948	      3.53466332	     42.09998691	      0.73478339	     -2.71360930	    -23.46251660	     -6.85132019	     -6.54771329	      4.45977738	      1.99053380	      7.19587640	     -8.94924588	     -6.46307745	     43.41736956	     98.17247530	    -11.69395672	     -0.78802187	    -21.76481179	     32.19938463	     98.18343598
      0.41000000	     -0.04040052	     -3.10257195	     -0.47118043	      0.33693618	      0.93397129	     -0.25801432	     -8.54137082	      9.09373463	      1.81196239	      3.66091035	      0.06389494	     11.47250227	     -5.98595158	     -6.89345456	     29.97047064	     -1.66883329	      3.10762174	     38.14272119	      0.66571607	     -2.06872540	    -22.10067325	     -6.89345456	     -6.83882687	      4.21200583	      2.29243887	      8.20566485	     -9.08444927	     -5.67581860	     44.16752860	     98.43562132	    -12.32187690	     -0.47864250	    -23.59624440	     32.15807218	     97.91296076
      0.42000000	     -0.14191239	     -3.03351639	     -0.89335507	      0.34819821	      0.93273908	     -0.25735243	     -9.27651234	      8.96203354	      1.99410247	      3.57822291	      0.06245177	     11.84018915	     -5.84333522	     -6.90334750	     29.99942464	     -1.74527861	      2.80164909	     34.14845756	      0.59600302	     -1.87719960	    -21.04833273	     -6.90334750	     -6.84237403	      4.08465387	      2.71485435	      9.05429357	     -9.17568681	     -5.39797665	     44.97362182	     98.57185758	    -12.90785353	     -0.46427122	    -23.96132789	     31.73212972	     97.81887481
      0.43000000	     -0.09041223	     -3.03568433	     -1.33777073	      0.35965253	      0.93150407	     -0.25671578	    -10.18246647	      8.87081163	      2.11296862	      3.52514054	      0.06152531	     12.34410901	     -5.27197449	     -6.91956798	     29.77310504	     -1.93445124	      2.40295458	     30.18610835	      0.52684698	     -1.17091421	    -19.29007746	     -6.91956798	     -7.02926867	      4.04485381	      3.14824392	      9.86106697	     -9.30855672	     -5.03645776	     45.86929439	     98.79903723	    -13.43301415	     -0.39471336	    -24.53367038	     31.26450247	     97.67210540
      0.44000000	     -0.22723633	     -3.02708435	     -1.75265750	      0.37132258	      0.92988583	     -0.25616869	    -10.88362372	      8.76297889	      2.17006352	      3.48340809	      0.06079694	     12.79238907	     -4.92764627	     -6.92909789	     29.64805832	     -2.06401919	      2.12275937	     26.21360247	      0.45751367	     -0.63739453	    -17.54289778	     -6.92909789	     -6.93739915	      3.98955404	      3.57614549	     10.54442626	     -9.43429258	     -4.74963846	     46.63000502	     98.97357019	    -14.01371368	     -0.37373388	    -24.93608100	     30.84739281	     97.56601264
      0.45000000	     -0.25566276	     -3.13035539	     -2.21350995	      0.38316992	      0.92819366	     -0.25558698	    -11.65285454	      8.72224472	      2.02972726	      3.58816925	      0.06262537	     13.60696228	     -3.61447721	     -6.96327943	     29.44205803	     -2.43170138	      1.39005127	     22.61659490	      0.39473405	      1.35832970	    -13.90697398	     -6.96327943	     -6.98916524	      4.06183951	      3.97004187	     11.24576515	     -9.53727980	     -4.36381010	     47.42373971	     99.42221967	    -14.56987798	     -0.24897538	    -25.65110248	     30.50086141	     97.39412975
      0.46000000	     -0.25770298	     -3.12703788	     -2.67610441	      0.39512810	      0.92653760	     -0.25513125	    -12.49585898	      8.56384454	      2.07790381	      3.59233953	      0.06269815	     13.94904442	     -3.36676750	     -6.97282789	     29.02877832	     -2.57277302	      0.92715089	     18.86705704	      0.32929227	      1.75857243	    -11.98041178	     -6.97282789	     -7.04696883	      4.02280348	      4.46699757	     11.84690243	     -9.67392076	     -4.03787348	     48.15392410	     99.59237545	    -15.02894957	     -0.21322561	    -25.94815031	     29.98726778	     97.31160060
      0.47000000	     -0.21706348	     -3.17542888	     -3.19951930	      0.40739879	      0.92477762	     -0.25458787	    -13.35972316	      8.39911392	      1.98413832	      3.69555251	      0.06449956	     14.55366687	     -2.21863943	     -7.00073006	     28.65076126	     -2.90680344	     -0.23766394	     15.67571901	      0.27359291	      3.70330325	     -7.93098235	     -7.00073006	     -7.14373077	      4.03583871	      4.96050127	     12.35764144	     -9.81008683	     -3.68020653	     48.97665177	     99.90788719	    -15.51605067	     -0.15664522	    -26.37721616	     29.45423789	     97.23640989
      0.48000000	     -0.34861276	     -3.15095809	     -3.67738604	      0.41966572	      0.92279981	     -0.25421894	    -14.01955651	      8.17821392	      2.07034681	      3.81858526	      0.06664689	     14.77164943	     -1.98831425	     -7.00721427	     28.29819718	     -2.97620747	     -0.59683658	     12.41971420	      0.21676490	      4.11625308	     -6.08069980	     -7.00721427	     -7.00954782	      3.96945371	      5.45616115	     12.79195612	     -9.91643784	     -3.40400251	     49.59713647	    100.01260262	    -15.99640845	     -0.14416225	    -26.59986299	     28.99610224	     97.18261965
      0.49000000	     -0.16455018	     -3.09430129	     -4.19428044	      0.43232748	      0.92113862	     -0.25377207	    -15.00683751	      7.83809900	      1.76278146	      4.00597067	      0.06991738	     15.45794728	     -0.66653088	     -7.03600434	     27.76811625	     -3.17765198	     -2.24730740	      9.96155591	      0.17386195	      6.13950645	     -1.49268811	     -7.03600434	     -7.23030091	      3.84703447	      6.02200147	     13.09917349	    -10.08355096	     -3.08957936	     50.44336399	    100.19984290	    -16.30569075	     -0.15734493	    -26.95413147	     28.41019134	     97.16229814
      0.50000000	     -0.11387484	     -2.98442652	     -4.67548525	      0.44500592	      0.91932997	     -0.25350986	    -15.84562518	      7.46287634	      1.68610608	      4.17120269	      0.07280122	     15.67465560	     -0.35914396	     -7.04485081	     27.18329706	     -3.12685577	     -2.65637085	      7.47837640	      0.13052229	      6.60539556	      0.31282756	     -7.04485081	     -7.26495881	      3.67394285	      6.55869778	     13.35476989	    -10.23143065	     -2.76228468	     51.07490361	    100.28109651	    -16.65765216	     -0.17441292	    -27.19900282	     27.87259038	     97.11150883
      0.51000000	      0.01490790	     -2.83539148	     -5.16971900	      0.45787357	      0.91758445	     -0.25330169	    -16.72286988	      6.99637396	      1.52609924	      4.42583803	      0.07724545	     15.95828399	      0.35980583	     -7.05671971	     26.61705387	     -3.06192152	     -3.37647672	      5.68888014	      0.09928969	      7.46651673	      2.43564441	     -7.05671971	     -7.36974937	      3.47616538	      7.04052196	     13.56079703	    -10.34923410	     -2.44382024	     51.84804242	    100.35173410	    -16.95718137	     -0.18069809	    -27.47207663	     27.28006470	     97.06283023
      0.52000000	      0.08120976	     -2.65137022	     -5.59418249	      0.47097314	      0.91577215	     -0.25312473	    -17.48259574	      6.51719214	      1.39364028	      4.80759660	      0.08390839	     16.18668492	      0.86840973	     -7.06608631	     26.12663034	     -2.91981838	     -3.67328145	      4.40683789	      0.07691383	      8.17411442	      3.87508096	     -7.06608631	     -7.36956713	      3.20322813	      7.55037516	     13.59525356	    -10.46063120	     -2.16507221	     52.42239353	    100.39535480	    -17.24539038	     -0.21727004	    -27.70971029	     26.79606659	     97.01861977
